# xmcd CD database file
# Copyright (C) 1996 Ti Kan
#
# Track frame offsets:
#	150
#	10023
#	21675
#	32250
#	46438
#	58650
#	68448
#	78073
#	88360
#	97338
#	109020
#	117573
#	127225
#	138435
#	149390
#	160780
#	171255
#	182945
#	192485
#	205852
#	215460
#	225717
#	236915
#	248762
#	261292
# Disc length: 3612 seconds
#
# Revision: 1
# Processed by: cddbd v1.5.2PL0 Copyright (c) Steve Scherf et al.
# Submitted via: CDCOPY 4.900
#
DISCID=740e1a19
DTITLE=Charlie Rich - The Complete Smash Sessions
DYEAR=1900
DGENRE=
TTITLE0=Dance Of Love
TTITLE1=Man About Town (previously unreleased)
TTITLE2=Down And Out
TTITLE3=I Can't Go On
TTITLE4=The Best Years
TTITLE5=Something Just Came Over Me
TTITLE6=When My Baby Comes Home
TTITLE7=She's A Yum Yum
TTITLE8=Double Dog Dare Me
TTITLE9=Just A Little Bit You
TTITLE10=Santa Claus' Daughter
TTITLE11=Just A Little Bit Of Time
TTITLE12=Hawg Jaw
TTITLE13=Moonshine Minnie
TTITLE14=Have I Stayed Away Too Long
TTITLE15=It Ain't Gonna Be That Way
TTITLE16=That's My Way
TTITLE17=Party Girl
TTITLE18=You Can Have Her
TTITLE19=Lonely Weekends
TTITLE20=Blowin' Town
TTITLE21=Tears A Go-Go
TTITLE22=No Home
TTITLE23=So Long
TTITLE24=Let The Party Roll On
EXTD=
EXTT0=
EXTT1=
EXTT2=
EXTT3=
EXTT4=
EXTT5=
EXTT6=
EXTT7=
EXTT8=
EXTT9=
EXTT10=
EXTT11=
EXTT12=
EXTT13=
EXTT14=
EXTT15=
EXTT16=
EXTT17=
EXTT18=
EXTT19=
EXTT20=
EXTT21=
EXTT22=
EXTT23=
EXTT24=
PLAYORDER=
